<svg id="visual" viewBox="0 0 900 600" width="900" height="600" xmlns="http://www.w3.org/2000/svg" xmlns:xlink="http://www.w3.org/1999/xlink" version="1.1"><rect x="0" y="0" width="900" height="600" fill="#000000"></rect><defs><linearGradient id="grad1_0" x1="33.3%" y1="0%" x2="100%" y2="100%"><stop offset="20%" stop-color="#000000" stop-opacity="1"></stop><stop offset="80%" stop-color="#000000" stop-opacity="1"></stop></linearGradient></defs><defs><linearGradient id="grad2_0" x1="0%" y1="0%" x2="66.7%" y2="100%"><stop offset="20%" stop-color="#000000" stop-opacity="1"></stop><stop offset="80%" stop-color="#000000" stop-opacity="1"></stop></linearGradient></defs><g transform="translate(900, 0)"><path d="M0 459.7C-44.9 446.8 -89.9 434 -137.2 422.3C-184.5 410.6 -234.2 400 -270.2 371.9C-306.2 343.8 -328.4 298.1 -354.3 257.4C-380.3 216.8 -409.8 181.1 -428 139.1C-446.1 97 -452.9 48.5 -459.7 0L0 0Z" fill="#FFFFFF"></path></g><g transform="translate(0, 600)"><path d="M0 -459.7C35.7 -419.3 71.5 -378.9 120.8 -371.9C170.2 -364.8 233.2 -391.2 270.2 -371.9C307.2 -352.7 318.3 -287.8 329.3 -239.2C340.2 -190.6 351.1 -158.3 372.8 -121.1C394.5 -84 427.1 -42 459.7 0L0 0Z" fill="#FFFFFF"></path></g></svg>