<svg id="visual" viewBox="0 0 960 540" width="960" height="540" xmlns="http://www.w3.org/2000/svg" xmlns:xlink="http://www.w3.org/1999/xlink" version="1.1"><path d="M0 412L10.7 408.5C21.3 405 42.7 398 64 385.8C85.3 373.7 106.7 356.3 128 358.8C149.3 361.3 170.7 383.7 192 391C213.3 398.3 234.7 390.7 256 385C277.3 379.3 298.7 375.7 320 373.2C341.3 370.7 362.7 369.3 384 379.2C405.3 389 426.7 410 448 409.3C469.3 408.7 490.7 386.3 512 374.7C533.3 363 554.7 362 576 366.2C597.3 370.3 618.7 379.7 640 388.5C661.3 397.3 682.7 405.7 704 398.7C725.3 391.7 746.7 369.3 768 357.3C789.3 345.3 810.7 343.7 832 355.2C853.3 366.7 874.7 391.3 896 392.3C917.3 393.3 938.7 370.7 949.3 359.3L960 348L960 541L949.3 541C938.7 541 917.3 541 896 541C874.7 541 853.3 541 832 541C810.7 541 789.3 541 768 541C746.7 541 725.3 541 704 541C682.7 541 661.3 541 640 541C618.7 541 597.3 541 576 541C554.7 541 533.3 541 512 541C490.7 541 469.3 541 448 541C426.7 541 405.3 541 384 541C362.7 541 341.3 541 320 541C298.7 541 277.3 541 256 541C234.7 541 213.3 541 192 541C170.7 541 149.3 541 128 541C106.7 541 85.3 541 64 541C42.7 541 21.3 541 10.7 541L0 541Z" fill="#fff1f0"></path><path d="M0 404L10.7 410.7C21.3 417.3 42.7 430.7 64 435C85.3 439.3 106.7 434.7 128 437.7C149.3 440.7 170.7 451.3 192 449.7C213.3 448 234.7 434 256 423.3C277.3 412.7 298.7 405.3 320 412.8C341.3 420.3 362.7 442.7 384 455.2C405.3 467.7 426.7 470.3 448 461.3C469.3 452.3 490.7 431.7 512 423C533.3 414.3 554.7 417.7 576 416.5C597.3 415.3 618.7 409.7 640 418C661.3 426.3 682.7 448.7 704 446.7C725.3 444.7 746.7 418.3 768 403.8C789.3 389.3 810.7 386.7 832 391.7C853.3 396.7 874.7 409.3 896 418.7C917.3 428 938.7 434 949.3 437L960 440L960 541L949.3 541C938.7 541 917.3 541 896 541C874.7 541 853.3 541 832 541C810.7 541 789.3 541 768 541C746.7 541 725.3 541 704 541C682.7 541 661.3 541 640 541C618.7 541 597.3 541 576 541C554.7 541 533.3 541 512 541C490.7 541 469.3 541 448 541C426.7 541 405.3 541 384 541C362.7 541 341.3 541 320 541C298.7 541 277.3 541 256 541C234.7 541 213.3 541 192 541C170.7 541 149.3 541 128 541C106.7 541 85.3 541 64 541C42.7 541 21.3 541 10.7 541L0 541Z" fill="#cac0c0"></path><path d="M0 498L10.7 485.7C21.3 473.3 42.7 448.7 64 447.7C85.3 446.7 106.7 469.3 128 477.7C149.3 486 170.7 480 192 475.3C213.3 470.7 234.7 467.3 256 469.2C277.3 471 298.7 478 320 473.2C341.3 468.3 362.7 451.7 384 445.7C405.3 439.7 426.7 444.3 448 450.8C469.3 457.3 490.7 465.7 512 465.5C533.3 465.3 554.7 456.7 576 454.8C597.3 453 618.7 458 640 454.8C661.3 451.7 682.7 440.3 704 439.3C725.3 438.3 746.7 447.7 768 458.3C789.3 469 810.7 481 832 486.5C853.3 492 874.7 491 896 484C917.3 477 938.7 464 949.3 457.5L960 451L960 541L949.3 541C938.7 541 917.3 541 896 541C874.7 541 853.3 541 832 541C810.7 541 789.3 541 768 541C746.7 541 725.3 541 704 541C682.7 541 661.3 541 640 541C618.7 541 597.3 541 576 541C554.7 541 533.3 541 512 541C490.7 541 469.3 541 448 541C426.7 541 405.3 541 384 541C362.7 541 341.3 541 320 541C298.7 541 277.3 541 256 541C234.7 541 213.3 541 192 541C170.7 541 149.3 541 128 541C106.7 541 85.3 541 64 541C42.7 541 21.3 541 10.7 541L0 541Z" fill="#989192"></path><path d="M0 515L10.7 516.3C21.3 517.7 42.7 520.3 64 515.7C85.3 511 106.7 499 128 497.2C149.3 495.3 170.7 503.7 192 500.7C213.3 497.7 234.7 483.3 256 474.8C277.3 466.3 298.7 463.7 320 463.3C341.3 463 362.7 465 384 465.8C405.3 466.7 426.7 466.3 448 474.8C469.3 483.3 490.7 500.7 512 508.5C533.3 516.3 554.7 514.7 576 505.8C597.3 497 618.7 481 640 482.7C661.3 484.3 682.7 503.7 704 504.5C725.3 505.3 746.7 487.7 768 479.5C789.3 471.3 810.7 472.7 832 480.7C853.3 488.7 874.7 503.3 896 508C917.3 512.7 938.7 507.3 949.3 504.7L960 502L960 541L949.3 541C938.7 541 917.3 541 896 541C874.7 541 853.3 541 832 541C810.7 541 789.3 541 768 541C746.7 541 725.3 541 704 541C682.7 541 661.3 541 640 541C618.7 541 597.3 541 576 541C554.7 541 533.3 541 512 541C490.7 541 469.3 541 448 541C426.7 541 405.3 541 384 541C362.7 541 341.3 541 320 541C298.7 541 277.3 541 256 541C234.7 541 213.3 541 192 541C170.7 541 149.3 541 128 541C106.7 541 85.3 541 64 541C42.7 541 21.3 541 10.7 541L0 541Z" fill="#696466"></path></svg>