<!--?xml version="1.0" standalone="no"?-->
              <svg id="sw-js-blob-svg" viewBox="0 0 100 100" xmlns="http://www.w3.org/2000/svg" version="1.1">
                    <defs> 
                        <linearGradient id="sw-gradient" x1="0" x2="1" y1="1" y2="0">
                            <stop id="stop1" stop-color="rgba(248, 117, 55, 1)" offset="0%"></stop>
                            <stop id="stop2" stop-color="rgba(251, 168, 31, 1)" offset="100%"></stop>
                        </linearGradient>
                    </defs>
                <path fill="url(#sw-gradient)" d="M18.6,-30.1C25.1,-28.5,32.1,-25.5,36.7,-20.3C41.3,-15.1,43.4,-7.5,41.6,-1.1C39.7,5.4,33.9,10.8,29.9,16.9C25.8,23,23.4,29.7,18.7,34.7C14,39.7,7,43,0.7,41.9C-5.7,40.7,-11.4,35.2,-18.5,31.6C-25.6,28,-34.2,26.3,-38.7,21.4C-43.2,16.4,-43.8,8.2,-41.9,1.1C-40,-6,-35.6,-12,-30.6,-16.3C-25.7,-20.6,-20.3,-23.2,-15.1,-25.7C-9.9,-28.1,-5,-30.4,0.5,-31.4C6,-32.3,12.1,-31.8,18.6,-30.1Z" width="100%" height="100%" transform="translate(50 50)" stroke-width="0" style="transition: all 0.3s ease 0s;"></path>
              </svg>